<svg width="16" height="16" viewBox="0 0 16 16" fill="none" xmlns="http://www.w3.org/2000/svg">
<path fill-rule="evenodd" clip-rule="evenodd" d="M1.646 4.64599C1.69245 4.59943 1.74762 4.56249 1.80837 4.53728C1.86911 4.51207 1.93423 4.4991 2 4.4991C2.06577 4.4991 2.13089 4.51207 2.19163 4.53728C2.25238 4.56249 2.30756 4.59943 2.354 4.64599L8 10.293L13.646 4.64599C13.6925 4.59951 13.7477 4.56263 13.8084 4.53747C13.8692 4.51231 13.9343 4.49936 14 4.49936C14.0657 4.49936 14.1308 4.51231 14.1916 4.53747C14.2523 4.56263 14.3075 4.59951 14.354 4.64599C14.4005 4.69248 14.4374 4.74767 14.4625 4.80841C14.4877 4.86915 14.5006 4.93425 14.5006 4.99999C14.5006 5.06574 14.4877 5.13084 14.4625 5.19158C14.4374 5.25232 14.4005 5.30751 14.354 5.35399L8.354 11.354C8.30756 11.4006 8.25238 11.4375 8.19163 11.4627C8.13089 11.4879 8.06577 11.5009 8 11.5009C7.93423 11.5009 7.86911 11.4879 7.80837 11.4627C7.74762 11.4375 7.69245 11.4006 7.646 11.354L1.646 5.35399C1.59944 5.30755 1.5625 5.25237 1.53729 5.19163C1.51208 5.13088 1.49911 5.06576 1.49911 4.99999C1.49911 4.93423 1.51208 4.8691 1.53729 4.80836C1.5625 4.74761 1.59944 4.69244 1.646 4.64599V4.64599Z" fill="#FF0000"/>
</svg>
